<svg xmlns="http://www.w3.org/2000/svg" viewBox="0 0 1080 1080" width="1080" height="1080" style="width: 100%; height: 100%; transform: translate3d(0px, 0px, 0px);" preserveAspectRatio="xMidYMid meet"><defs><clipPath id="__lottie_element_2"><rect width="1080" height="1080" x="0" y="0"></rect></clipPath><mask id="__lottie_element_44" mask-type="alpha"><g style="display: block;" transform="matrix(0.6855751276016235,0.15443573892116547,-0.03746151551604271,0.9834291934967041,225.42706298828125,24.8525390625)" opacity="1"><g opacity="1" transform="matrix(1,0,0,1,658.927001953125,444.17498779296875)"><path fill="rgb(255,255,255)" fill-opacity="1" d=" M29.812000274658203,15.319999694824219 C26.072999954223633,17.200000762939453 23.322999954223633,17.450000762939453 20.128999710083008,17.850000381469727 C4.572999954223633,17.325000762939453 -6.427000045776367,13.574999809265137 -25.04199981689453,1.5420000553131104 C-25.04199981689453,1.5420000553131104 -29.177000045776367,-3.674999952316284 -33.29199981689453,-13.390999794006348 C-27.427000045776367,-1.4249999523162842 -26.177000045776367,4.324999809265137 -5.5920000076293945,12.423999786376953 C13.743000030517578,20.0310001373291 20.572999954223633,18.825000762939453 29.812000274658203,15.319999694824219z"></path></g></g></mask><mask id="__lottie_element_51" mask-type="alpha"><g style="display: block;" transform="matrix(0.6855751276016235,0.15443573892116547,-0.03746151551604271,0.9834291934967041,225.42706298828125,24.8525390625)" opacity="1"><g opacity="1" transform="matrix(1,0,0,1,658.927001953125,444.17498779296875)"><path fill="rgb(255,255,255)" fill-opacity="1" d=" M29.812000274658203,15.319999694824219 C26.072999954223633,17.200000762939453 23.322999954223633,17.450000762939453 20.128999710083008,17.850000381469727 C4.572999954223633,17.325000762939453 -6.427000045776367,13.574999809265137 -25.04199981689453,1.5420000553131104 C-25.04199981689453,1.5420000553131104 -29.177000045776367,-3.674999952316284 -33.29199981689453,-13.390999794006348 C-27.427000045776367,-1.4249999523162842 -26.177000045776367,4.324999809265137 -5.5920000076293945,12.423999786376953 C13.743000030517578,20.0310001373291 20.572999954223633,18.825000762939453 29.812000274658203,15.319999694824219z"></path></g></g></mask><mask id="__lottie_element_56" mask-type="alpha"><g style="display: block;" transform="matrix(0.6855751276016235,0.15443573892116547,-0.03746151551604271,0.9834291934967041,225.42706298828125,24.8525390625)" opacity="1"><g opacity="1" transform="matrix(1,0,0,1,658.927001953125,444.17498779296875)"><path fill="rgb(255,255,255)" fill-opacity="1" d=" M29.812000274658203,15.319999694824219 C26.072999954223633,17.200000762939453 23.322999954223633,17.450000762939453 20.128999710083008,17.850000381469727 C4.572999954223633,17.325000762939453 -6.427000045776367,13.574999809265137 -25.04199981689453,1.5420000553131104 C-25.04199981689453,1.5420000553131104 -29.177000045776367,-3.674999952316284 -33.29199981689453,-13.390999794006348 C-27.427000045776367,-1.4249999523162842 -26.177000045776367,4.324999809265137 -5.5920000076293945,12.423999786376953 C13.743000030517578,20.0310001373291 20.572999954223633,18.825000762939453 29.812000274658203,15.319999694824219z"></path></g></g></mask><mask id="__lottie_element_83" mask-type="alpha"><g style="display: block;" transform="matrix(0.9861154556274414,0.1660614311695099,-0.1660614311695099,0.9861154556274414,110.84884643554688,22.3294677734375)" opacity="1"><g opacity="1" transform="matrix(1,0,0,1,442.8599853515625,417.218994140625)"><path fill="rgb(255,255,255)" fill-opacity="1" d=" M37.814998626708984,-2.5880000591278076 C30.139999389648438,2.5309998989105225 24.57900047302246,3.315000057220459 24.57900047302246,3.315000057220459 C3.8889999389648438,8.031000137329102 -6.610000133514404,6.031000137329102 -24.319000244140625,4.065000057220459 C-33.11000061035156,2.0309998989105225 -43.183998107910156,-1.996000051498413 -39.744998931884766,-0.3240000009536743 C-33.361000061035156,2.7809998989105225 -19.361000061035156,6.281000137329102 -1.121000051498413,6.432000160217285 C28.702999114990234,6.678999900817871 37.814998626708984,-2.5880000591278076 37.814998626708984,-2.5880000591278076z"></path></g></g></mask><mask id="__lottie_element_90" mask-type="alpha"><g style="display: block;" transform="matrix(0.9861154556274414,0.1660614311695099,-0.1660614311695099,0.9861154556274414,110.84884643554688,22.3294677734375)" opacity="1"><g opacity="1" transform="matrix(1,0,0,1,442.8599853515625,417.218994140625)"><path fill="rgb(255,255,255)" fill-opacity="1" d=" M37.814998626708984,-2.5880000591278076 C30.139999389648438,2.5309998989105225 24.57900047302246,3.315000057220459 24.57900047302246,3.315000057220459 C3.8889999389648438,8.031000137329102 -6.610000133514404,6.031000137329102 -24.319000244140625,4.065000057220459 C-33.11000061035156,2.0309998989105225 -43.183998107910156,-1.996000051498413 -39.744998931884766,-0.3240000009536743 C-33.361000061035156,2.7809998989105225 -19.361000061035156,6.281000137329102 -1.121000051498413,6.432000160217285 C28.702999114990234,6.678999900817871 37.814998626708984,-2.5880000591278076 37.814998626708984,-2.5880000591278076z"></path></g></g></mask><mask id="__lottie_element_95" mask-type="alpha"><g style="display: block;" transform="matrix(0.9861154556274414,0.1660614311695099,-0.1660614311695099,0.9861154556274414,110.84884643554688,22.3294677734375)" opacity="1"><g opacity="1" transform="matrix(1,0,0,1,442.8599853515625,417.218994140625)"><path fill="rgb(255,255,255)" fill-opacity="1" d=" M37.814998626708984,-2.5880000591278076 C30.139999389648438,2.5309998989105225 24.57900047302246,3.315000057220459 24.57900047302246,3.315000057220459 C3.8889999389648438,8.031000137329102 -6.610000133514404,6.031000137329102 -24.319000244140625,4.065000057220459 C-33.11000061035156,2.0309998989105225 -43.183998107910156,-1.996000051498413 -39.744998931884766,-0.3240000009536743 C-33.361000061035156,2.7809998989105225 -19.361000061035156,6.281000137329102 -1.121000051498413,6.432000160217285 C28.702999114990234,6.678999900817871 37.814998626708984,-2.5880000591278076 37.814998626708984,-2.5880000591278076z"></path></g></g></mask><mask id="__lottie_element_131" mask-type="alpha"><g style="display: block;" transform="matrix(0.9714106917381287,-0.23740534484386444,0.23740534484386444,0.9714106917381287,-161.568115234375,140.4935302734375)" opacity="1"><g opacity="1" transform="matrix(1,0,0,1,496.13800048828125,808.6699829101562)"><path fill="rgb(234,204,195)" fill-opacity="1" d=" M-113.0479965209961,-270.2200012207031 C-91.51499938964844,-7.46999979019165 -356.1929931640625,-107.82499694824219 -356.1929931640625,24.961999893188477 C-356.1929931640625,93.02200317382812 -183.51600646972656,270.22100830078125 -2.2149999141693115,259.0509948730469 C170.2100067138672,248.4290008544922 351.70599365234375,52.36600112915039 351.70599365234375,1.6339999437332153 C356.1919860839844,-87.18900299072266 98.69300079345703,-94.36699676513672 98.69300079345703,-150.89100646972656 C98.69300079345703,-207.41600036621094 99.58999633789062,-258.5559997558594 99.58999633789062,-258.5559997558594 C99.58999633789062,-258.5559997558594 -113.0479965209961,-270.2200012207031 -113.0479965209961,-270.2200012207031z"></path></g></g></mask></defs><g clip-path="url(#__lottie_element_2)"><g style="display: block;" transform="matrix(0.9965698719024658,0.08275575935840607,-0.08275575935840607,0.9965698719024658,31.166961669921875,32.51434326171875)" opacity="1"><g opacity="1" transform="matrix(1,0,0,1,538.7559814453125,313.25)"><path fill="rgb(60,41,53)" fill-opacity="1" d=" M79.25399780273438,296.0790100097656 C109.45999908447266,288.9010009765625 128.75,298.77099609375 128.75,298.77099609375 C128.75,298.77099609375 133.53500366210938,281.2760009765625 133.53500366210938,281.2760009765625 C133.53500366210938,281.2760009765625 138.02099609375,291.593994140625 138.54400634765625,298.77099609375 C142.59100341796875,284.4159851074219 144.30099487304688,276.34100341796875 144.30099487304688,276.34100341796875 C144.30099487304688,276.34100341796875 157.23599243164062,285.31298828125 161.83399963378906,298.77099609375 C165.53500366210938,272.75299072265625 170.8470001220703,256.4360046386719 170.8470001220703,256.4360046386719 C170.8470001220703,256.4360046386719 182.23399353027344,278.0429992675781 183.13099670410156,293.7439880371094 C190.76699829101562,262.7909851074219 194.1009979248047,203.6699981689453 194.1009979248047,203.6699981689453 C194.1009979248047,203.6699981689453 211.4149932861328,226.02000427246094 211.86399841308594,246.20700073242188 C221.26300048828125,220.63600158691406 225.572998046875,164.39599609375 225.572998046875,164.39599609375 C225.572998046875,164.39599609375 237.33700561523438,186.01300048828125 245.19900512695312,209.9459991455078 C245.19900512695312,209.9459991455078 253.00799560546875,161.9510040283203 252.07000732421875,128.02000427246094 C252.07000732421875,128.02000427246094 270.6650085449219,151.82899475097656 271.4070129394531,167.51100158691406 C276.6549987792969,137.11099243164062 292.9389953613281,27.812999725341797 280.37799072265625,-67.29100036621094 C267.8169860839844,-162.39500427246094 175.85400390625,-298.77099609375 -1.3459999561309814,-298.77099609375 C-178.54400634765625,-298.77099609375 -292.9389953613281,-218.02099609375 -292.9389953613281,-61.45800018310547 C-292.9389953613281,95.1050033569336 -253.1999969482422,158.8459930419922 -246.02200317382812,197.42599487304688 C-241.98399353027344,174.5469970703125 -246.0590057373047,156.49200439453125 -246.0590057373047,156.49200439453125 C-246.0590057373047,156.49200439453125 -232.69700622558594,193.75599670410156 -231.5540008544922,217.9810028076172 C-225.625,207.21400451660156 -226.843994140625,184.8260040283203 -226.843994140625,184.8260040283203 C-226.843994140625,184.8260040283203 -217.33399963378906,207.1540069580078 -218.52999877929688,234.07000732421875 C-213.4459991455078,226.59300231933594 -213.98399353027344,205.46099853515625 -213.98399353027344,205.46099853515625 C-213.98399353027344,205.46099853515625 -205.14300537109375,239.7310028076172 -207.53500366210938,255.58099365234375 C-181.2169952392578,234.64700317382812 -167.02999877929688,258.0989990234375 -167.02999877929688,258.0989990234375 C-167.02999877929688,258.0989990234375 -162.54400634765625,236.4149932861328 -162.54400634765625,236.4149932861328 C-162.54400634765625,236.4149932861328 -149.83399963378906,259.9670104980469 -149.83399963378906,259.9670104980469 C-149.83399963378906,259.9670104980469 -133.55799865722656,241.947998046875 -133.55799865722656,241.947998046875 C-133.55799865722656,241.947998046875 -116.48799896240234,266.77099609375 -116.48799896240234,266.77099609375 C-116.48799896240234,266.77099609375 -84.18800354003906,252.4149932861328 -84.18800354003906,252.4149932861328 C-84.18800354003906,252.4149932861328 -44.83100128173828,281.7239990234375 -44.83100128173828,281.7239990234375 C-44.83100128173828,281.7239990234375 -1.3459999561309814,269.4630126953125 -1.3459999561309814,269.4630126953125 C-1.3459999561309814,269.4630126953125 23.775999069213867,290.24700927734375 23.775999069213867,290.24700927734375 C23.775999069213867,290.24700927734375 42.02000045776367,273.052001953125 42.02000045776367,273.052001953125 C42.02000045776367,273.052001953125 53.983001708984375,293.83599853515625 53.983001708984375,293.83599853515625 C53.983001708984375,293.83599853515625 73.57099914550781,276.78900146484375 73.57099914550781,276.78900146484375 C73.57099914550781,276.78900146484375 79.25399780273438,296.0790100097656 79.25399780273438,296.0790100097656z"></path></g></g><g style="display: block;" transform="matrix(0.9714106917381287,-0.23740534484386444,0.23740534484386444,0.9714106917381287,-161.568115234375,140.4935302734375)" opacity="1"><g opacity="1" transform="matrix(1,0,0,1,496.13800048828125,808.6699829101562)"><path fill="rgb(221,196,146)" fill-opacity="1" d=" M-113.0479965209961,-270.2200012207031 C-91.51499938964844,-7.46999979019165 -356.1929931640625,-107.82499694824219 -356.1929931640625,24.961999893188477 C-356.1929931640625,93.02200317382812 -183.51600646972656,270.22100830078125 -2.2149999141693115,259.0509948730469 C170.2100067138672,248.4290008544922 351.70599365234375,52.36600112915039 351.70599365234375,1.6339999437332153 C356.1919860839844,-87.18900299072266 98.69300079345703,-94.36699676513672 98.69300079345703,-150.89100646972656 C98.69300079345703,-207.41600036621094 99.58999633789062,-258.5559997558594 99.58999633789062,-258.5559997558594 C99.58999633789062,-258.5559997558594 -113.0479965209961,-270.2200012207031 -113.0479965209961,-270.2200012207031z"></path></g></g><g style="display: block;" mask="url(#__lottie_element_131)"><g transform="matrix(0.9714106917381287,-0.23740534484386444,0.23740534484386444,0.9714106917381287,-161.568115234375,140.4935302734375)" opacity="1"><g opacity="1" transform="matrix(1,0,0,1,561.9530029296875,657.7230224609375)"><path fill="rgb(207,174,150)" fill-opacity="1" d=" M-231.4010009765625,30.566999435424805 C-197.0659942626953,15.013999938964844 -164.125,10.555999755859375 -126.45800018310547,52.00299835205078 C-110.38200378417969,72.86299896240234 -67.73999786376953,75.60299682617188 -48.46500015258789,73.88400268554688 C-18.3439998626709,71.197998046875 -46.50400161743164,111.08499908447266 -21.952999114990234,132.6179962158203 C2.5969998836517334,154.15199279785156 52.98400115966797,156.57699584960938 87.05899810791016,123.96499633789062 C119.11900329589844,93.28099822998047 208.24200439453125,77.14900207519531 208.24200439453125,77.14900207519531 C250.697998046875,51.20500183105469 37.388999938964844,-88.30799865722656 37.388999938964844,-88.30799865722656 C37.388999938964844,-88.30799865722656 -156.7550048828125,-154.1510009765625 -156.7550048828125,-154.1510009765625 C-156.7550048828125,-154.1510009765625 -204.99000549316406,-110.69400024414062 -204.99000549316406,-110.69400024414062 C-204.99000549316406,-110.69400024414062 -231.4010009765625,30.566999435424805 -231.4010009765625,30.566999435424805z"></path></g><g opacity="1" transform="matrix(1,0,0,1,336.1300048828125,763.760986328125)"><path fill="rgb(207,174,150)" fill-opacity="1" d=" M-66.98600006103516,-19.17799949645996 C11.744000434875488,-19.85099983215332 66.98500061035156,19.85099983215332 66.98500061035156,19.85099983215332 C66.98500061035156,19.85099983215332 -40.06999969482422,10.430000305175781 -66.98600006103516,-19.17799949645996z"></path></g><g opacity="1" transform="matrix(1,0,0,1,474.0069885253906,760.0599975585938)"><path fill="rgb(207,174,150)" fill-opacity="1" d=" M15.552000045776367,23.552000045776367 C4.784999847412109,9.571000099182129 12.26200008392334,-12.26099967956543 -9.04699993133545,-23.552000045776367 C-15.552000045776367,-0.8970000147819519 -3.5889999866485596,19.141000747680664 15.552000045776367,23.552000045776367z"></path></g><g opacity="1" transform="matrix(1,0,0,1,692.4719848632812,797.593017578125)"><path fill="rgb(207,174,150)" fill-opacity="1" d=" M-20.180999755859375,0.578000009059906 C-38.137001037597656,2.0929999351501465 -10.461000442504883,-21.68199920654297 -0.7419999837875366,-15.699999809265137 C4.908999919891357,-10.187000274658203 38.137001037597656,9.444000244140625 30.660999298095703,17.496000289916992 C26.77199935913086,21.683000564575195 4.640999794006348,-1.5160000324249268 -20.180999755859375,0.578000009059906z"></path></g></g></g><g style="display: block;" transform="matrix(0.9861154556274414,0.1660614311695099,-0.1660614311695099,0.9861154556274414,42.892120361328125,-19.523193359375)" opacity="1"><g opacity="1" transform="matrix(1,0,0,1,729.5419921875,463.4330139160156)"><path fill="rgb(221,196,146)" fill-opacity="1" d=" M8.77299976348877,-30.19300079345703 C32.874000549316406,-48.0260009765625 25.441999435424805,-2.1429998874664307 17.344999313354492,16.024999618530273 C9.25,34.194000244140625 -4.15500020980835,48.025001525878906 -21.246000289916992,47.553001403808594 C-32.874000549316406,47.231998443603516 -4.3379998207092285,-20.492000579833984 8.77299976348877,-30.19300079345703z"></path></g></g><g style="display: block;" transform="matrix(0.999952495098114,0.009754499420523643,-0.009754499420523643,0.999952495098114,3.47393798828125,42.8619384765625)" opacity="1"><g opacity="1" transform="matrix(1,0,0,1,312.5270080566406,418.9679870605469)"><path fill="rgb(221,196,146)" fill-opacity="1" d=" M-2.884999990463257,-35.10200119018555 C-23.97599983215332,-56.4109992980957 -26.104999542236328,-10.61400032043457 -17.12700080871582,11.282999992370605 C-9.579999923706055,29.687000274658203 2.687000036239624,56.40999984741211 17.516000747680664,47.900001525878906 C26.104000091552734,42.97200012207031 8.58899974822998,-23.510000228881836 -2.884999990463257,-35.10200119018555z"></path></g></g><g style="display: block;" transform="matrix(0.9861154556274414,0.1660614311695099,-0.1660614311695099,0.9861154556274414,62.80340576171875,-8.53204345703125)" opacity="1"><g opacity="1" transform="matrix(1,0,0,1,505.468994140625,371.2699890136719)"><path fill="rgb(249,222,183)" fill-opacity="1" d=" M-152.2570037841797,111.80400085449219 C-119.95800018310547,211.39500427246094 -19.14299964904785,286.56201171875 31.4060001373291,286.56201171875 C70.88200378417969,286.56201171875 90.58499908447266,253.5050048828125 128.23300170898438,234.69400024414062 C165.7480010986328,215.94900512695312 201.4949951171875,170.1269989013672 223.2830047607422,97.53199768066406 C227.23300170898438,84.37000274658203 232.4459991455078,69.125 238.89700317382812,55.369998931884766 C303.1180114746094,-81.5719985961914 224.19000244140625,-289.8340148925781 38.46699905395508,-289.8340148925781 C-147.25599670410156,-289.8340148925781 -242.20199584960938,-156.46200561523438 -152.2570037841797,111.80400085449219z"></path></g></g><g style="display: block;" transform="matrix(0.9678897857666016,0.25137513875961304,-0.25137513875961304,0.9678897857666016,169.58090209960938,-22.7071533203125)" opacity="1"><g opacity="1" transform="matrix(1,0,0,1,526.531005859375,572.656005859375)"><path stroke-linecap="round" stroke-linejoin="round" fill-opacity="0" stroke="rgb(101,75,80)" stroke-opacity="1" stroke-width="2" d=" M-6.866000175476074,1.8070000410079956 C-6.866000175476074,1.8070000410079956 -3.0859999656677246,0.39399999380111694 1.5460000038146973,0.17000000178813934"></path></g></g><g style="display: block;" transform="matrix(0.9678897857666016,0.25137513875961304,-0.25137513875961304,0.9678897857666016,172.541259765625,-16.920166015625)" opacity="1"><g opacity="1" transform="matrix(1,0,0,1,528.6060180664062,548.3189697265625)"><path stroke-linecap="round" stroke-linejoin="round" fill-opacity="0" stroke="rgb(101,75,80)" stroke-opacity="1" stroke-width="2" d=" M-2.075000047683716,-1.3459999561309814 C-2.075000047683716,-1.3459999561309814 2.075000047683716,1.3459999561309814 2.075000047683716,1.3459999561309814"></path></g><g opacity="1" transform="matrix(1,0,0,1,550.5460205078125,550.1849975585938)"><path stroke-linecap="round" stroke-linejoin="round" fill-opacity="0" stroke="rgb(101,75,80)" stroke-opacity="1" stroke-width="2" d=" M-1.9210000038146973,0.9399999976158142 C-1.9210000038146973,0.9399999976158142 1.9210000038146973,-0.9399999976158142 1.9210000038146973,-0.9399999976158142"></path></g></g><g style="display: block;" transform="matrix(0.9678897857666016,0.25137513875961304,-0.25137513875961304,0.9678897857666016,172.541259765625,-16.920166015625)" opacity="1"><g opacity="1" transform="matrix(1,0,0,1,559.3909912109375,522.5809936523438)"><path fill="rgb(221,196,146)" fill-opacity="1" d=" M-6.923999786376953,-15.982000350952148 C-7.317999839782715,-7.158999919891357 -10.765999794006348,23.04599952697754 0.0010000000474974513,24.392000198364258 C10.767000198364258,25.73900032043457 8.52400016784668,2.4110000133514404 0.0010000000474974513,-15.982000350952148 C-4.486000061035156,-25.738000869750977 -6.53000020980835,-24.80500030517578 -6.923999786376953,-15.982000350952148z"></path></g></g><g style="display: block;" transform="matrix(0.9861154556274414,0.1660614311695099,-0.1660614311695099,0.9861154556274414,110.84884643554688,22.3294677734375)" opacity="1"><g opacity="1" transform="matrix(1,0,0,1,442.8599853515625,417.218994140625)"><path fill="rgb(255,255,255)" fill-opacity="1" d=" M37.814998626708984,-2.5880000591278076 C30.139999389648438,2.5309998989105225 24.57900047302246,3.315000057220459 24.57900047302246,3.315000057220459 C3.8889999389648438,8.031000137329102 -6.610000133514404,6.031000137329102 -24.319000244140625,4.065000057220459 C-33.11000061035156,2.0309998989105225 -43.183998107910156,-1.996000051498413 -39.744998931884766,-0.3240000009536743 C-33.361000061035156,2.7809998989105225 -19.361000061035156,6.281000137329102 -1.121000051498413,6.432000160217285 C28.702999114990234,6.678999900817871 37.814998626708984,-2.5880000591278076 37.814998626708984,-2.5880000591278076z"></path></g></g><g style="display: block;" transform="matrix(0.9726096987724304,-0.23244425654411316,0.23244425654411316,0.9726096987724304,-55.759521484375,174.1524658203125)" opacity="1"><g opacity="1" transform="matrix(1,0,0,1,407.6510009765625,434.9580078125)"><path stroke-linecap="round" stroke-linejoin="round" fill-opacity="0" stroke="rgb(63,0,32)" stroke-opacity="1" stroke-width="1" d=" M-11.32699966430664,-6.491000175476074 C-11.32699966430664,-6.491000175476074 -6.617000102996826,-6.491000175476074 -6.617000102996826,-6.491000175476074 C-6.617000102996826,-6.491000175476074 -0.7850000262260437,1.6790000200271606 11.32800006866455,6.491000175476074"></path></g><g opacity="1" transform="matrix(1,0,0,1,403.1159973144531,433.9360046386719)"><path stroke-linecap="round" stroke-linejoin="round" fill-opacity="0" stroke="rgb(63,0,32)" stroke-opacity="1" stroke-width="1" d=" M-2.0820000171661377,1.0230000019073486 C-2.0820000171661377,1.0230000019073486 2.0810000896453857,-1.0230000019073486 2.0810000896453857,-1.0230000019073486"></path></g></g><g style="display: block;" transform="matrix(0.9861154556274414,0.1660614311695099,-0.1660614311695099,0.9861154556274414,110.84884643554688,22.3294677734375)" opacity="1"><g opacity="1" transform="matrix(1,0,0,1,441.489990234375,438.4110107421875)"><path stroke-linecap="round" stroke-linejoin="round" fill-opacity="0" stroke="rgb(63,0,32)" stroke-opacity="1" stroke-width="1.5" d=" M-31.448999404907227,-19.87700080871582 C-15.489999771118164,-16.910999298095703 3.009999990463257,-15.66100025177002 23.448999404907227,-18.62700080871582"></path></g></g><g style="display: block;" transform="matrix(0.9861154556274414,0.1660614311695099,-0.1660614311695099,0.9861154556274414,110.84884643554688,22.3294677734375)" opacity="1"><g opacity="1" transform="matrix(1,0,0,1,457.5580139160156,386.7090148925781)"><path stroke-linecap="round" stroke-linejoin="round" fill-opacity="0" stroke="rgb(63,0,32)" stroke-opacity="1" stroke-width="1.5" d=" M19.95599937438965,20.892000198364258 C4.441999912261963,25.790000915527344 -6.729000091552734,25.107999801635742 -22.20599937438965,25.332000732421875"></path></g></g><g style="display: block;" transform="matrix(0.9915786981582642,-0.12950585782527924,0.12950585782527924,0.9915786981582642,-14.82708740234375,179.59075927734375)" opacity="1"><g opacity="1" transform="matrix(1,0,0,1,482.531005859375,375.89801025390625)"><path stroke-linecap="round" stroke-linejoin="round" fill-opacity="0" stroke="rgb(63,0,32)" stroke-opacity="1" stroke-width="1.5" d=" M7.0289998054504395,4.627999782562256 C7.0289998054504395,4.627999782562256 1.6449999809265137,-1.3389999866485596 -7.0289998054504395,-4.627999782562256"></path></g></g><g style="display: block;" transform="matrix(0.9861154556274414,0.1660614311695099,-0.1660614311695099,0.9861154556274414,110.84884643554688,22.3294677734375)" opacity="1"><g opacity="1" transform="matrix(1,0,0,1,452.9599914550781,367.9729919433594)"><path fill="rgb(63,0,32)" fill-opacity="1" d=" M-67.78800201416016,16.323999404907227 C-16.959999084472656,8.027000427246094 20.290000915527344,20.277000427246094 64.03900146484375,16.30299949645996 C59.790000915527344,9.777000427246094 49.290000915527344,9.277999877929688 25.31399917602539,10.21500015258789 C1.9170000553131104,11.130000114440918 -44.685001373291016,7.540999889373779 -67.78800201416016,16.323999404907227z"></path></g></g><g style="display: block;" mask="url(#__lottie_element_90)"><g transform="matrix(0.9861158728599548,0.16606153547763824,-0.16606153547763824,0.9861158728599548,107.29489135742188,32.2686767578125)" opacity="1"><g opacity="1" transform="matrix(1,0,0,1,440.8760070800781,402.09100341796875)"><path fill="rgb(63,0,32)" fill-opacity="1" d=" M27.729999542236328,0 C27.729999542236328,-17.02199935913086 15.3149995803833,-30.820999145507812 0,-30.820999145507812 C-15.3149995803833,-30.820999145507812 -27.729999542236328,-17.02199935913086 -27.729999542236328,0 C-27.729999542236328,17.02199935913086 -15.3149995803833,30.820999145507812 0,30.820999145507812 C15.3149995803833,30.820999145507812 27.729999542236328,17.02199935913086 27.729999542236328,0z"></path></g></g></g><g style="display: block;" mask="url(#__lottie_element_95)"><g transform="matrix(0.9861158728599548,0.16606153547763824,-0.16606153547763824,0.9861158728599548,107.29489135742188,32.2686767578125)" opacity="1"><g opacity="1" transform="matrix(1,0,0,1,440.8760070800781,402.09100341796875)"><path fill="rgb(0,0,0)" fill-opacity="1" d=" M3.000999927520752,0 C3.000999927520752,-1.8420000076293945 1.656999945640564,-3.3359999656677246 0,-3.3359999656677246 C-1.6579999923706055,-3.3359999656677246 -3.002000093460083,-1.8420000076293945 -3.002000093460083,0 C-3.002000093460083,1.8420000076293945 -1.6579999923706055,3.3359999656677246 0,3.3359999656677246 C1.656999945640564,3.3359999656677246 3.000999927520752,1.8420000076293945 3.000999927520752,0z"></path></g></g></g><g style="display: none;" mask="url(#__lottie_element_83)"><g transform="matrix(0.9999334812164307,-0.011575696058571339,0.011575696058571339,0.9999334812164307,3.7227783203125,55.0263671875)" opacity="0.009056603773573358"><g opacity="1" transform="matrix(1,0,0,1,429.9339904785156,396.43798828125)"><path fill="rgb(255,255,255)" fill-opacity="1" d=" M3.5220000743865967,1.4299999475479126 C4.368000030517578,-0.652999997138977 3.4769999980926514,-2.9820001125335693 1.531000018119812,-3.7720000743865967 C-0.414000004529953,-4.560999870300293 -2.6760001182556152,-3.513000011444092 -3.5220000743865967,-1.4299999475479126 C-4.368000030517578,0.652999997138977 -3.4769999980926514,2.9820001125335693 -1.531000018119812,3.7720000743865967 C0.414000004529953,4.560999870300293 2.6760001182556152,3.513000011444092 3.5220000743865967,1.4299999475479126z"></path></g></g></g><g style="display: block;" transform="matrix(0.9861154556274414,0.1660614311695099,-0.1660614311695099,0.9861154556274414,110.84884643554688,22.3294677734375)" opacity="1"><g opacity="1" transform="matrix(1,0,0,1,438.26800537109375,399.4079895019531)"><path fill="rgb(63,0,32)" fill-opacity="1" d=" M-35.76900100708008,17.54400062561035 C-17.76799964904785,22.840999603271484 -15.647000312805176,24.003000259399414 5.138000011444092,24.003000259399414 C25.923999786376953,24.003000259399414 44.066001892089844,14.5 44.066001892089844,14.5 C44.066001892089844,14.5 36.125999450683594,20.45599937438965 4.531000137329102,20.45599937438965 C-27.062999725341797,20.45599937438965 -37.768001556396484,9.092000007629395 -47.066001892089844,15.680000305175781 C-41.23400115966797,15.333000183105469 -35.76900100708008,17.54400062561035 -35.76900100708008,17.54400062561035z"></path></g></g><g style="display: block;" transform="matrix(0.6855751276016235,0.15443573892116547,-0.03746151551604271,0.9834291934967041,225.42706298828125,24.8525390625)" opacity="1"><g opacity="1" transform="matrix(1,0,0,1,658.927001953125,444.17498779296875)"><path fill="rgb(255,255,255)" fill-opacity="1" d=" M29.812000274658203,15.319999694824219 C26.072999954223633,17.200000762939453 23.322999954223633,17.450000762939453 20.128999710083008,17.850000381469727 C4.572999954223633,17.325000762939453 -6.427000045776367,13.574999809265137 -25.04199981689453,1.5420000553131104 C-25.04199981689453,1.5420000553131104 -29.177000045776367,-3.674999952316284 -33.29199981689453,-13.390999794006348 C-27.427000045776367,-1.4249999523162842 -26.177000045776367,4.324999809265137 -5.5920000076293945,12.423999786376953 C13.743000030517578,20.0310001373291 20.572999954223633,18.825000762939453 29.812000274658203,15.319999694824219z"></path></g></g><g style="display: block;" transform="matrix(0.6736896634101868,0.28979918360710144,-0.1325102299451828,0.9523653388023376,270.739501953125,-36.5517578125)" opacity="1"><g opacity="1" transform="matrix(1,0,0,1,633.8599853515625,399.4700012207031)"><path stroke-linecap="round" stroke-linejoin="round" fill-opacity="0" stroke="rgb(63,0,32)" stroke-opacity="1" stroke-width="1.5" d=" M-9.420999526977539,1.5829999446868896 C0.746999979019165,-1.5839999914169312 9.420999526977539,1.5829999446868896 9.420999526977539,1.5829999446868896"></path></g><g opacity="1" transform="matrix(1,0,0,1,627.7269897460938,403.0150146484375)"><path stroke-linecap="round" stroke-linejoin="round" fill-opacity="0" stroke="rgb(63,0,32)" stroke-opacity="1" stroke-width="1.5" d=" M-3.2869999408721924,3.244999885559082 C-3.2869999408721924,3.244999885559082 -0.2980000078678131,-3.131999969482422 3.2869999408721924,-3.244999885559082"></path></g></g><g style="display: block;" transform="matrix(0.640444815158844,0.4507724344730377,-0.24748168885707855,0.8875739574432373,354.7537841796875,-143.4080810546875)" opacity="1"><g opacity="1" transform="matrix(1,0,0,1,682.010009765625,472.1310119628906)"><path stroke-linecap="round" stroke-linejoin="round" fill-opacity="0" stroke="rgb(63,0,32)" stroke-opacity="1" stroke-width="1" d=" M-9.718999862670898,3.2149999141693115 C-9.718999862670898,3.2149999141693115 -1.0470000505447388,0.37400001287460327 5.232999801635742,-3.2149999141693115 C5.232999801635742,-3.2149999141693115 9.718999862670898,-2.3889999389648438 9.718999862670898,-2.3889999389648438"></path></g><g opacity="1" transform="matrix(1,0,0,1,681.3469848632812,472.6919860839844)"><path stroke-linecap="round" stroke-linejoin="round" fill-opacity="0" stroke="rgb(63,0,32)" stroke-opacity="1" stroke-width="1" d=" M-0.6629999876022339,-0.5609999895095825 C-0.6629999876022339,-0.5609999895095825 0.6639999747276306,0.5609999895095825 0.6639999747276306,0.5609999895095825"></path></g><g opacity="1" transform="matrix(1,0,0,1,685.4660034179688,471.03900146484375)"><path stroke-linecap="round" stroke-linejoin="round" fill-opacity="0" stroke="rgb(63,0,32)" stroke-opacity="1" stroke-width="1" d=" M-1.4789999723434448,-0.4189999997615814 C-1.4789999723434448,-0.4189999997615814 1.4789999723434448,0.4189999997615814 1.4789999723434448,0.4189999997615814"></path></g></g><g style="display: block;" transform="matrix(0.6855751276016235,0.15443573892116547,-0.03746151551604271,0.9834291934967041,225.42706298828125,24.8525390625)" opacity="1"><g opacity="1" transform="matrix(1,0,0,1,654.3460083007812,463.6820068359375)"><path stroke-linecap="round" stroke-linejoin="round" fill-opacity="0" stroke="rgb(63,0,32)" stroke-opacity="1" stroke-width="1.5" d=" M-19.086000442504883,-18.96500015258789 C-6.0970001220703125,-9.182000160217285 -2.3469998836517334,-4.432000160217285 26.584999084472656,-3.6559998989105225"></path></g></g><g style="display: block;" transform="matrix(0.6855751276016235,0.15443573892116547,-0.03746151551604271,0.9834291934967041,225.42706298828125,24.8525390625)" opacity="1"><g opacity="1" transform="matrix(1,0,0,1,677.2999877929688,421.06500244140625)"><path stroke-linecap="round" stroke-linejoin="round" fill-opacity="0" stroke="rgb(63,0,32)" stroke-opacity="1" stroke-width="1.5" d=" M-24.333999633789062,20.72599983215332 C-16.299999237060547,26.934999465942383 -9.300999641418457,29.68600082397461 3.0840001106262207,31.02400016784668"></path></g></g><g style="display: block;" transform="matrix(0.6855751276016235,0.15443573892116547,-0.03746151551604271,0.9834291934967041,225.42706298828125,24.8525390625)" opacity="1"><g opacity="1" transform="matrix(1,0,0,1,670.64599609375,393.5870056152344)"><path fill="rgb(63,0,32)" fill-opacity="1" d=" M-57.31800079345703,-1.2209999561309814 C-24.645000457763672,13.413000106811523 11.854000091552734,21.413000106811523 56.81800079345703,22.767000198364258 C24.104000091552734,17.663000106811523 0.33399999141693115,9.050000190734863 -19.614999771118164,2.0920000076293945 C-46.645999908447266,-7.336999893188477 -57.31800079345703,-1.2209999561309814 -57.31800079345703,-1.2209999561309814z"></path></g></g><g style="display: block;" mask="url(#__lottie_element_51)"><g transform="matrix(0.685575544834137,0.15443582832813263,-0.03746156021952629,0.9834296107292175,224.5550537109375,36.10321044921875)" opacity="1"><g opacity="1" transform="matrix(1,0,0,1,657.5,432.9119873046875)"><path fill="rgb(63,0,32)" fill-opacity="1" d=" M26.48699951171875,0 C26.48699951171875,-17.02199935913086 14.628000259399414,-30.820999145507812 0,-30.820999145507812 C-14.628000259399414,-30.820999145507812 -26.48699951171875,-17.02199935913086 -26.48699951171875,0 C-26.48699951171875,17.02199935913086 -14.628000259399414,30.820999145507812 0,30.820999145507812 C14.628000259399414,30.820999145507812 26.48699951171875,17.02199935913086 26.48699951171875,0z"></path></g></g></g><g style="display: block;" mask="url(#__lottie_element_56)"><g transform="matrix(0.685575544834137,0.15443582832813263,-0.03746156021952629,0.9834296107292175,224.5550537109375,36.10321044921875)" opacity="1"><g opacity="1" transform="matrix(1,0,0,1,657.3939819335938,433.5870056152344)"><path fill="rgb(0,0,0)" fill-opacity="1" d=" M3.002000093460083,0 C3.002000093460083,-1.8420000076293945 1.656999945640564,-3.3359999656677246 0,-3.3359999656677246 C-1.6579999923706055,-3.3359999656677246 -3.002000093460083,-1.8420000076293945 -3.002000093460083,0 C-3.002000093460083,1.843000054359436 -1.6579999923706055,3.3359999656677246 0,3.3359999656677246 C1.656999945640564,3.3359999656677246 3.002000093460083,1.843000054359436 3.002000093460083,0z"></path></g></g></g><g style="display: none;" mask="url(#__lottie_element_44)"><g transform="matrix(0.8768759965896606,0.0018425037851557136,0.06362445652484894,0.9907510280609131,53.556732177734375,50.4371337890625)" opacity="0.009056603773573358"><g opacity="1" transform="matrix(1,0,0,1,646.4509887695312,431.3080139160156)"><path fill="rgb(255,255,255)" fill-opacity="1" d=" M3.5230000019073486,1.4299999475479126 C4.36899995803833,-0.652999997138977 3.4760000705718994,-2.9820001125335693 1.531000018119812,-3.7720000743865967 C-0.41499999165534973,-4.561999797821045 -2.677000045776367,-3.513000011444092 -3.5230000019073486,-1.4299999475479126 C-4.36899995803833,0.652999997138977 -3.4760000705718994,2.9820001125335693 -1.531000018119812,3.7709999084472656 C0.41499999165534973,4.560999870300293 2.677000045776367,3.513000011444092 3.5230000019073486,1.4299999475479126z"></path></g></g></g><g style="display: block;" transform="matrix(0.6855751276016235,0.15443573892116547,-0.03746151551604271,0.9834291934967041,225.42706298828125,24.8525390625)" opacity="1"><g opacity="1" transform="matrix(1,0,0,1,663.1129760742188,435.60699462890625)"><path fill="rgb(63,0,32)" fill-opacity="1" d=" M-37.47700119018555,-4.822999954223633 C-27.863000869750977,15.642999649047852 -25.378000259399414,13.923999786376953 -9.532999992370605,20.968000411987305 C6.88700008392334,28.26799964904785 15.01200008392334,26.64299964904785 25.62700080871582,23.88800048828125 C30.386999130249023,21.01799964904785 33.97700119018555,20.658000946044922 33.97700119018555,20.658000946044922 C33.97700119018555,20.658000946044922 6.690000057220459,24.01300048828125 -7.27400016784668,18.452999114990234 C-21.238000869750977,12.892999649047852 -26.613000869750977,7.26800012588501 -37.47700119018555,-4.822999954223633z"></path></g></g><g style="display: block;" transform="matrix(0.9991768002510071,-0.04056841880083084,0.04056841880083084,0.9991768002510071,2.80120849609375,123.57476806640625)" opacity="1"><g opacity="1" transform="matrix(1,0,0,1,626.5670166015625,250.63699340820312)"><path fill="rgb(63,0,32)" fill-opacity="1" d=" M16.71500015258789,28.518999099731445 C5.051000118255615,18.35099983215332 -8.406999588012695,30.61199951171875 -8.406999588012695,30.61199951171875 C-8.406999588012695,30.61199951171875 -17.976999282836914,19.54800033569336 -33.827999114990234,22.284000396728516 C-33.827999114990234,22.284000396728516 -26.558000564575195,-30.61199951171875 -26.558000564575195,-30.61199951171875 C-26.558000564575195,-30.61199951171875 33.827999114990234,-24.849000930786133 33.827999114990234,-24.849000930786133 C33.827999114990234,-24.849000930786133 16.71500015258789,28.518999099731445 16.71500015258789,28.518999099731445z"></path></g></g><g style="display: block;" transform="matrix(0.9991768002510071,-0.04056841880083084,0.04056841880083084,0.9991768002510071,2.80120849609375,123.57476806640625)" opacity="1"><g opacity="1" transform="matrix(1,0,0,1,531.0759887695312,265.7149963378906)"><path fill="rgb(60,41,53)" fill-opacity="1" d=" M-229.78900146484375,103.04299926757812 C-229.78900146484375,103.04299926757812 -207.7779998779297,105.03800201416016 -175.927001953125,146.3090057373047 C-178.61900329589844,117.29900360107422 -171.88999938964844,105.03800201416016 -171.88999938964844,105.03800201416016 C-171.88999938964844,105.03800201416016 -168.30099487304688,126.87000274658203 -159.55299377441406,146.3090057373047 C-158.20700073242188,120.44000244140625 -150.1320037841797,110.72000122070312 -150.1320037841797,110.72000122070312 C-150.1320037841797,110.72000122070312 -148.78599548339844,120.58300018310547 -138.8419952392578,125.375 C-140.33700561523438,106.08499908447266 -140.302001953125,78.2969970703125 -136.26499938964844,71.26799774169922 C-136.31300354003906,92.2040023803711 -120.43699645996094,106.03099822998047 -120.43699645996094,106.03099822998047 C-120.43699645996094,85.99299621582031 -122.43599700927734,68.76200103759766 -115.55699920654297,48.724998474121094 C-118.5479965209961,70.70600128173828 -109.072998046875,91.75 -108.32499694824219,96.61000061035156 C-105.18499755859375,92.87100219726562 -96.43099975585938,95.51000213623047 -96.43099975585938,95.51000213623047 C-96.43099975585938,95.51000213623047 -89.37699890136719,70.24500274658203 -89.37699890136719,70.24500274658203 C-89.37699890136719,70.24500274658203 -92.01399993896484,82.3270034790039 -90.22000122070312,96.68199920654297 C-83.34100341796875,91.29900360107422 -68.35600280761719,91.23999786376953 -55.084999084472656,98.71700286865234 C-55.38399887084961,81.66999816894531 -49.9900016784668,36.74399948120117 -49.9900016784668,36.74399948120117 C-49.9900016784668,36.74399948120117 -40.47200012207031,107.11699676513672 -40.47200012207031,107.11699676513672 C-40.17300033569336,78.96900177001953 -31.945999145507812,18.225000381469727 -31.945999145507812,18.225000381469727 C-31.945999145507812,18.225000381469727 -21.96299934387207,88.09300231933594 -17.177000045776367,114.11199951171875 C-0.13099999725818634,103.34600067138672 7.206999778747559,112.66999816894531 20.964000701904297,129.8730010986328 C20.964000701904297,112.22799682617188 22.392000198364258,77.68699645996094 22.392000198364258,77.68699645996094 C22.392000198364258,77.68699645996094 29.54199981689453,116.33399963378906 34.32699966430664,132.70399475097656 C30.47100067138672,69.33000183105469 60.345001220703125,1.690999984741211 60.345001220703125,1.690999984741211 C60.345001220703125,1.690999984741211 44.1349983215332,72.00299835205078 64.87300109863281,114.8499984741211 C59.66600036621094,86.46900177001953 55.84400177001953,59.417999267578125 68.99600219726562,14.288999557495117 C77.93000030517578,-16.367000579833984 87.08300018310547,15.53499984741211 87.08300018310547,15.53499984741211 C87.08300018310547,15.53499984741211 112.20899963378906,-17.222999572753906 111.21900177001953,18.965999603271484 C110.26200103759766,53.9630012512207 116.927001953125,87.06500244140625 101.22599792480469,129.4709930419922 C112.66500091552734,102.30799865722656 121.62300109863281,65.87000274658203 121.62300109863281,65.87000274658203 C121.62300109863281,65.87000274658203 124.10399627685547,115.93499755859375 120.68699645996094,129.8820037841797 C136.82000732421875,120.125 147.4239959716797,129.57699584960938 150.56500244140625,135.85800170898438 C156.11599731445312,124.38200378417969 154.91400146484375,112.10399627685547 154.91400146484375,112.10399627685547 C154.91400146484375,112.10399627685547 165.59500122070312,131.1230010986328 163.91700744628906,140.27499389648438 C172.55799865722656,126.0999984741211 171.52200317382812,93.02200317382812 168.64300537109375,75.3030014038086 C175.04100036621094,101.51399993896484 174.14700317382812,150.01600646972656 173.3300018310547,163.33299255371094 C181.6300048828125,153.53799438476562 185.10800170898438,94.83699798583984 185.10800170898438,94.83699798583984 C185.10800170898438,94.83699798583984 200.9409942626953,137.0749969482422 185.68800354003906,189.78599548339844 C201.38999938964844,170.4929962158203 200.0959930419922,161.2550048828125 200.0959930419922,161.2550048828125 C200.0959930419922,161.2550048828125 207.24899291992188,196.44400024414062 205.02499389648438,216.03199768066406 C212.23800659179688,191.43299865722656 222.9720001220703,159.01300048828125 222.9720001220703,159.01300048828125 C254.82200622558594,100.18499755859375 239.85800170898438,-34.494998931884766 239.85800170898438,-34.494998931884766 C239.85800170898438,-34.494998931884766 190.14199829101562,-243.06900024414062 -6.544000148773193,-243.06900024414062 C-203.22900390625,-243.06900024414062 -246.73699951171875,-24.444000244140625 -246.73699951171875,-24.444000244140625 C-246.73699951171875,-24.444000244140625 -229.78900146484375,103.04299926757812 -229.78900146484375,103.04299926757812z"></path></g></g><g style="display: block;" transform="matrix(0.9999080896377563,-0.013561519794166088,0.013561519794166088,0.9999080896377563,41.240142822265625,125.52740478515625)" opacity="1"><g opacity="1" transform="matrix(1.007949948310852,0,0,1.0020899772644043,316.1260070800781,581.5369873046875)"><path fill="rgb(60,41,53)" fill-opacity="1" d=" M40.83599853515625,-247.9510040283203 C27.413999557495117,-77.1500015258789 -15.557000160217285,181.781005859375 100.91400146484375,253.72500610351562 C-40.277000427246094,213.63900756835938 -48.7760009765625,-129.22000122070312 -40.70199966430664,-264.697998046875 C-40.70199966430664,-264.697998046875 -39.87300109863281,-310.4119873046875 7.873000144958496,-310.4119873046875 C48.775001525878906,-310.4119873046875 40.83599853515625,-247.9510040283203 40.83599853515625,-247.9510040283203z"></path></g></g><g style="display: block;" transform="matrix(0.9999080896377563,-0.013561519794166088,0.013561519794166088,0.9999080896377563,41.240142822265625,125.52740478515625)" opacity="1"><g opacity="1" transform="matrix(1,0,0,1,314.0880126953125,410.7070007324219)"><path stroke-linecap="round" stroke-linejoin="round" fill-opacity="0" stroke="rgb(177,162,137)" stroke-opacity="1" stroke-width="7" d=" M37.834999084472656,-10.357999801635742 C14.625,17.173999786376953 -11.406999588012695,16.37299919128418 -37.834999084472656,10.357999801635742"></path></g><g opacity="1" transform="matrix(1,0,0,1,311.4389953613281,405.8089904785156)"><path stroke-linecap="round" stroke-linejoin="round" fill-opacity="0" stroke="rgb(177,162,137)" stroke-opacity="1" stroke-width="7" d=" M-37.15599822998047,-43.81100082397461 C-37.15599822998047,-43.81100082397461 17.59000015258789,1.5210000276565552 37.15599822998047,43.81100082397461"></path></g></g><g style="display: block;" transform="matrix(0.9994451403617859,0.03331039845943451,-0.03331039845943451,0.9994451403617859,473.6146545410156,513.93310546875)" opacity="1"><g opacity="1" transform="matrix(1,0,0,1,0,0)"><path stroke-linecap="round" stroke-linejoin="miter" fill-opacity="0" stroke-miterlimit="4" stroke="rgb(190,178,186)" stroke-opacity="1" stroke-width="2" d="M0 0"></path></g></g><g style="display: block;" transform="matrix(0.9994451403617859,0.03331039845943451,-0.03331039845943451,0.9994451403617859,545.8663330078125,545.107177734375)" opacity="1"><g opacity="1" transform="matrix(1,0,0,1,0,0)"><path stroke-linecap="round" stroke-linejoin="miter" fill-opacity="0" stroke-miterlimit="4" stroke="rgb(199,176,166)" stroke-opacity="1" stroke-width="5" d=" M-41.207000732421875,13.975000381469727 C-41.41999816894531,17.954999923706055 -42.51599884033203,21.77400016784668 -45,25.5 C-48.08399963378906,30.125 -56.58700180053711,36.84299850463867 -66.4489974975586,46.45800018310547"></path></g></g><g style="display: block;" transform="matrix(0.9994451403617859,0.03331039845943451,-0.03331039845943451,0.9994451403617859,545.8663330078125,545.107177734375)" opacity="1"><g opacity="1" transform="matrix(1,0,0,1,0,0)"><path stroke-linecap="round" stroke-linejoin="miter" fill-opacity="0" stroke-miterlimit="4" stroke="rgb(205,175,155)" stroke-opacity="1" stroke-width="5" d=" M-106.72000122070312,99.70999908447266 C-108.91400146484375,105.94100189208984 -110.6969985961914,112.54900360107422 -111.927001953125,119.54499816894531"></path></g></g></g></svg>